ModelForces
version=1
nRows=4
nColumns=94
inDegrees=yes

This file contains the forces exerted on a model during a simulation.

A force is a generalized force, meaning that it can be either a force (N) or a torque (Nm).

Units are S.I. units (second, meters, Newtons, ...)
Angles are in degrees.

endheader 
time	addbrev_l	addlong_l	addmagDist_l	addmagIsch_l	addmagMid_l	addmagProx_l	bflh_l	bfsh_l	edl_l	ehl_l	fdl_l	fhl_l	gaslat_l	gasmed_l	glmax1_l	glmax2_l	glmax3_l	glmed1_l	glmed2_l	glmed3_l	glmin1_l	glmin2_l	glmin3_l	grac_l	iliacus_l	perbrev_l	perlong_l	piri_l	psoas_l	recfem_l	sart_l	semimem_l	semiten_l	soleus_l	tfl_l	tibant_l	tibpost_l	vasint_l	vaslat_l	vasmed_l	addbrev_r	addlong_r	addmagDist_r	addmagIsch_r	addmagMid_r	addmagProx_r	bflh_r	bfsh_r	edl_r	ehl_r	fdl_r	fhl_r	gaslat_r	gasmed_r	glmax1_r	glmax2_r	glmax3_r	glmed1_r	glmed2_r	glmed3_r	glmin1_r	glmin2_r	glmin3_r	grac_r	iliacus_r	perbrev_r	perlong_r	piri_r	psoas_r	recfem_r	sart_r	semimem_r	semiten_r	soleus_r	tfl_r	tibant_r	tibpost_r	vasint_r	vaslat_r	vasmed_r	lumbar_extension	lumbar_bending	lumbar_rotation	arm_flex_l	arm_add_l	arm_rot_l	arm_flex_r	arm_add_r	arm_rot_r	elbow_flex_l	elbow_flex_r	pro_sup_l	pro_sup_r	
          3.85000000	          9.18978522	         10.22158130	         35.69999146	          7.44409890	         90.36224095	          6.46221854	          0.00134376	          6.31314455	         46.60397132	         20.57630857	          1.55616359	          4.03081272	          8.42430243	         18.33752050	         37.35711246	         24.86152039	         15.85721443	         17.25507849	         68.49102592	         84.66523608	          5.14211786	          5.44740310	          4.09877703	          9.10612071	         16.82184843	          6.03101840	         10.58772946	          4.79290647	         20.87858573	          5.52423902	          3.08899986	        291.23652281	          8.12580013	         16.03154726	          1.65630499	        160.26448176	          9.60081574	         16.97013036	         49.70063364	         24.94285046	          6.31282036	          2.58691826	          9.52567148	          9.47846693	         10.65847465	          6.66877315	        256.35804547	          2.06499638	         60.66548879	         31.71179643	         22.34124740	         14.20949306	          0.19809954	         46.95590598	         11.40717379	         17.05448825	         14.17035525	          7.24027249	          7.68296685	         10.46994037	          2.56600684	          3.77049934	          5.50070570	          2.34598615	          3.84468616	          8.83505875	         19.59640035	          0.04126979	          6.89047444	          5.73140161	          2.22593864	         69.20101011	        205.70136870	         65.21069491	          3.38786907	          0.02135128	        262.65002338	         17.57525939	         49.79381834	         25.97150570	         77.93198898	        -38.94124937	        -21.86304016	       -151.04285776	        150.20023963	        -24.40927543	        -16.70519157	          0.12043278	         31.49432073	        -27.22744448	       -146.08019790	         -0.64926200	          6.67169559	
          3.86000000	        141.96022455	        251.97038047	         32.03247808	          7.56835378	         72.62899874	         16.18961169	          2.20728653	         20.48370628	         77.56115506	         38.68670357	          0.77337740	          3.49765292	          8.91377520	          0.02245518	         33.84263669	         24.01468897	         15.31023583	          6.91364938	         44.10234755	         74.14996395	          5.30491094	          5.19653430	          4.21356819	         12.27209286	         15.84518051	          9.61252424	         14.79906676	          4.96293801	         19.15715767	          5.58791508	          2.96094562	          0.00778160	          7.94497625	         23.94782236	          1.53445055	        187.40666086	          4.72326012	         16.47393855	         47.27075380	         23.83517396	         13.41030085	        101.76314090	          8.68134941	          8.89027649	          9.51284148	         12.60077973	        272.07858707	        115.76368164	         45.47174957	          0.80706539	          3.35296150	         10.86327216	        142.27261118	         38.61446363	         10.11216633	         15.07423512	         12.71157830	         13.78075814	          8.73254330	         10.68408785	          5.82645480	          6.41457410	          7.13893017	         36.13077400	         28.01615467	          8.61549991	         17.76421446	        210.50950838	         32.75917279	          3.76058473	         19.57714990	         84.07767237	        172.90238440	         42.99256392	          0.13856647	        165.78309663	         94.96708628	         15.89405386	         46.84411095	         23.66703726	         -2.31155247	        -35.25449588	         33.26727524	       -150.71088176	        150.13946086	        -22.44528917	         24.76216857	         37.58510900	         52.37566207	        -32.12052119	        -71.44835754	         -0.05747603	          2.58830818	
          3.87000000	        111.17830138	        278.77496494	         26.57444499	          6.52108162	         56.44457228	         12.81552890	          2.63612728	         43.20633350	         97.65295477	         48.59179268	          0.19465970	          0.02171458	          0.00694053	        173.50339161	         29.28760252	         21.66235811	         13.70637356	        392.87411289	        145.29380648	         62.38670663	         36.99846683	         12.52245034	          6.70035637	          9.22397418	         12.01530460	          9.29532612	         16.49868194	          5.44793718	         16.79575216	          6.75197671	          2.93641654	        240.57378272	          6.54062289	          0.01058727	          1.57644406	        213.95826987	          0.07079082	         18.97995924	         56.49377777	         27.43163447	         11.54543856	         82.67236632	          7.85637804	          8.15423084	          8.53922667	         11.51875739	        184.19860905	        131.45742120	         52.58568055	         37.93848865	         11.47734760	          9.76491938	        120.78088366	        102.34494340	          8.07163228	         11.97747189	         11.59530107	         11.41737079	          6.90926465	          5.97131004	          7.10590207	         12.21761928	          8.46434593	         72.10911271	         53.24441520	          5.95755688	         20.20931603	        286.22760312	        124.58244230	          3.83884802	         44.02413410	        125.59505711	        177.80504912	         28.06074479	         33.11903790	        156.79889830	         80.07118201	         17.09399033	         50.20411450	         25.24519010	        -17.47741317	        -41.75306575	         46.34910412	       -128.47734516	        150.01199141	        -17.56882024	         55.91549260	         65.63236887	         75.55874728	        -37.80099212	        -15.68339876	          0.56456404	          0.33042756	
          3.88000000	         84.36622490	        219.79073554	         20.20679618	          4.55121165	         41.35872354	         10.18539206	          0.94130932	         31.53185775	          0.01802311	          0.07598800	         17.14436143	         64.67618817	        180.75024540	        340.34968261	         24.69713072	         19.04056995	         11.74070582	        449.02848122	        124.41400190	         50.49912738	         66.52158359	         54.50147218	         18.11428866	          6.28819149	        146.03469630	          4.81776274	          0.08653926	          6.43060950	         68.81987908	         11.07927591	          6.32988813	         11.28579633	          4.27185331	        662.05575845	          1.83729099	         79.63025741	         94.58418719	          2.29736186	          0.05250558	          0.52996768	          9.94668821	         71.14462371	          7.76263908	          8.48076354	          7.57994620	          9.85738733	        318.15767919	         87.31054806	         63.16517068	         28.35758099	          5.86503886	          8.07399694	         65.45797275	        223.93007650	        103.95701804	        173.62886924	         12.22122327	         14.83853218	         27.77214289	        160.10793424	          6.17762141	         17.06469305	         23.99382525	         57.57551578	         44.78888852	         43.04157822	          0.58989765	        342.71341346	        103.96637015	          5.58937974	         32.82538735	        178.80959744	        217.41940062	         15.68091582	          0.03327529	        186.33022681	         74.73865714	         18.80968773	         54.80722575	         27.48975114	          0.06741442	        -47.18420203	         97.94081232	        -59.19678959	        145.41314152	         -9.36229095	         79.22581516	         86.61099442	         93.34704780	        -43.86899807	         25.87119129	          0.93915316	         -0.14235204	
